<svg width="1728" height="1117" viewBox="0 0 1728 1117" fill="none" xmlns="http://www.w3.org/2000/svg">
<g clip-path="url(#clip0_18_1058)" filter="url(#filter0_n_18_1058)">
<rect width="1294" height="1904" transform="matrix(0 -1 1 0 -50 1117)" fill="#79A3FD"/>
<g filter="url(#filter1_f_18_1058)">
<path d="M256.937 1142.09C206.284 1184.91 89.6485 1103.24 37.6623 1057.06C35.6222 1045.4 39.9079 1020.77 73.3719 1015.48C115.202 1008.88 119.111 955.097 90.4859 881.79C61.8605 808.483 30.603 662.797 91.6564 640.436C152.71 618.076 190.811 672.501 249.975 751.739C309.139 830.978 240.603 841.302 290.941 921.139C341.279 1000.98 320.253 1088.57 256.937 1142.09Z" fill="#935246"/>
<path d="M775.086 860.094C735.102 913.681 527.626 814.754 428.886 758.593C418.71 744.251 408.644 713.808 449.785 706.773C501.211 697.979 471.984 631.596 386.964 541.629C301.944 451.662 167.086 272.473 234.006 243.958C300.926 215.443 386.466 281.978 515.916 378.791C645.367 475.604 560.784 489.389 678.874 587.076C796.964 684.762 825.065 793.11 775.086 860.094Z" fill="#E891E1"/>
<path d="M904.268 1127.87C853.615 1170.69 736.98 1089.03 684.994 1042.84C682.954 1031.18 687.239 1006.55 720.703 1001.27C762.533 994.656 766.443 940.878 737.817 867.571C709.192 794.264 677.934 648.578 738.988 626.217C800.041 603.856 838.142 658.281 897.306 737.52C956.47 816.758 887.934 827.082 938.272 906.919C988.61 986.756 967.584 1074.35 904.268 1127.87Z" fill="#696099"/>
<path d="M1016.15 1427.85C937.197 1494.59 755.391 1367.29 674.358 1295.3C671.178 1277.13 677.858 1238.74 730.02 1230.5C795.222 1220.2 801.316 1136.37 756.697 1022.1C712.077 907.836 663.354 680.749 758.521 645.894C853.688 611.039 913.078 695.874 1005.3 819.387C1097.52 942.9 990.69 958.992 1069.15 1083.44C1147.62 1207.88 1114.85 1344.42 1016.15 1427.85Z" fill="#DC8EF2"/>
<path d="M2050.48 494.153C2019.75 603.334 1719.32 588.193 1572.94 566.976C1554.65 551.59 1530.48 511.29 1580.09 473.17C1642.1 425.52 1580.15 342.462 1438.55 259.991C1296.95 177.519 1058.69 -9.58819 1132.99 -97.9357C1207.3 -186.283 1340.79 -140.311 1541.37 -76.7222C1741.95 -13.1333 1639.71 64.1925 1826.19 136.658C2012.67 209.124 2088.88 357.677 2050.48 494.153Z" fill="#DC8EF2"/>
<path d="M1040.74 827.8C1152.14 847.637 1293.39 982.169 1430.41 1125.9C1425.25 1140.55 1396.27 1169.31 1321.61 1167.08C1228.29 1164.29 1158.55 1251.28 1177.9 1393C1197.24 1534.72 1172.13 1551.93 978.425 1483.76C784.721 1415.58 630.846 1302.66 668.363 1295.83C705.88 1288.99 797.927 1124.37 859.23 1047.1C920.533 969.827 929.344 807.964 1040.74 827.8Z" fill="#9771F5"/>
<path d="M82.3056 547.204C111.882 475.393 190.255 538.861 249.561 544.398C237.553 571.821 219.711 634.05 244.405 663.588C275.273 700.512 339.64 735.72 360.906 802.945C382.172 870.169 274.643 932.308 244.062 922.978C213.48 913.649 165.02 879.3 210.954 883.375C256.887 887.45 254.442 807.008 199.651 723.302C144.861 639.595 52.7289 619.016 82.3056 547.204Z" fill="#C6CCF0"/>
<path d="M1618.39 1115.8C1645.27 1261.85 1460.03 1372.32 1364.04 1409.3C1346.78 1398.42 1315.71 1359.74 1329.48 1292.07C1346.7 1207.48 1275.43 1132.98 1156.94 1093.37C1038.45 1053.76 819.079 928.276 826.78 788.885C834.48 649.494 933.034 648.165 1078.84 639.496C1224.65 630.827 1195.74 768.791 1336.82 776.973C1477.9 785.155 1584.78 933.24 1618.39 1115.8Z" fill="#CD858C" fill-opacity="0.71"/>
<path d="M49.7688 619.13C96.4411 623.678 148.585 694.047 198.312 770.119C195.148 779.109 180.823 797.96 148.832 801.447C108.844 805.805 73.2277 861.672 72.4349 944.13C71.6421 1026.59 59.7237 1038.37 -19.2655 1010.57C-98.2547 982.77 -157.221 925.973 -140.632 919.524C-124.044 913.074 -73.8305 809.917 -42.4714 760.334C-11.1122 710.751 3.09655 614.583 49.7688 619.13Z" fill="#695C92"/>
</g>
<g style="mix-blend-mode:color-dodge" filter="url(#filter2_f_18_1058)">
<path d="M293.492 1144.7C237.659 1191.96 109.094 1101.82 51.7904 1050.84C49.5416 1037.98 54.2657 1010.79 91.1523 1004.95C137.261 997.66 141.57 938.303 110.017 857.392C78.4635 776.481 44.009 615.684 111.307 591.004C178.605 566.323 220.603 626.394 285.818 713.851C351.034 801.309 275.487 812.704 330.974 900.822C386.46 988.94 363.284 1085.62 293.492 1144.7Z" fill="#696099"/>
<path d="M293.492 1144.7C237.659 1191.96 109.094 1101.82 51.7904 1050.84C49.5416 1037.98 54.2657 1010.79 91.1523 1004.95C137.261 997.66 141.57 938.303 110.017 857.392C78.4635 776.481 44.009 615.684 111.307 591.004C178.605 566.324 220.603 626.394 285.818 713.852C351.034 801.309 275.487 812.704 330.974 900.822C386.46 988.941 363.284 1085.62 293.492 1144.7Z" fill="#696099"/>
<path d="M-99.8065 -88.8201C-62.3299 -245.322 134.131 -66.8997 266.53 -31.2012C250.651 28.2876 235.281 166.895 300.837 245.414C382.78 343.562 537.656 450.557 610.109 615.846C682.562 781.134 470.146 885.118 399.395 851.577C328.644 818.036 209.041 719.155 311.503 746.305C413.966 773.454 377.795 584.493 225.389 367.814C72.9834 151.136 -137.283 67.6819 -99.8065 -88.8201Z" fill="#1F36A5"/>
<path d="M65.1351 567.488C116.581 572.507 174.058 650.175 228.871 734.138C225.384 744.061 209.593 764.867 174.331 768.715C130.252 773.526 90.9933 835.188 90.1194 926.199C89.2456 1017.21 76.1082 1030.21 -10.9599 999.529C-98.0281 968.846 -163.025 906.159 -144.74 899.04C-126.456 891.921 -71.1059 778.064 -36.5393 723.338C-1.9728 668.612 13.6893 562.468 65.1351 567.488Z" fill="#481F62"/>
<path d="M942.5 1019.45C736.9 1010.25 610.833 1091.95 573.5 1133.95L450 1222.95C592.167 1216.78 895.7 1196.15 972.5 1162.95C1068.5 1121.45 1349 1019.45 1349 974.951C1349 930.451 1194 813.451 1305.5 699.451C1394.7 608.251 1329.33 531.785 1285.5 504.951C1128.17 416.451 770.1 248.551 596.5 284.951C422.9 321.351 524.167 465.785 596.5 533.451C797.5 699.285 1148.1 1028.65 942.5 1019.45Z" fill="#3500DA"/>
<path d="M-39.0017 192.931C36.8855 206.462 133.113 298.23 226.454 396.27C222.939 406.269 203.196 425.887 152.338 424.365C88.7654 422.463 41.2562 481.801 54.4349 578.471C67.6136 675.141 50.5032 686.878 -81.4539 640.376C-213.411 593.875 -318.236 516.844 -292.678 512.184C-267.121 507.523 -204.415 395.227 -162.653 342.519C-120.892 289.811 -114.889 179.4 -39.0017 192.931Z" fill="#9771F5"/>
</g>
<g style="mix-blend-mode:color-dodge" filter="url(#filter3_f_18_1058)">
<path d="M1493.96 1092.7C1438.12 1139.96 1309.56 1049.82 1252.26 998.84C1250.01 985.977 1254.73 958.791 1291.62 952.955C1337.73 945.66 1342.03 886.303 1310.48 805.392C1278.93 724.481 1244.47 563.684 1311.77 539.004C1379.07 514.323 1421.07 574.394 1486.28 661.851C1551.5 749.309 1475.95 760.704 1531.44 848.822C1586.92 936.94 1563.75 1033.62 1493.96 1092.7Z" fill="#696099"/>
<path d="M1493.96 1092.7C1438.12 1139.96 1309.56 1049.82 1252.26 998.84C1250.01 985.977 1254.73 958.791 1291.62 952.955C1337.73 945.66 1342.03 886.303 1310.48 805.392C1278.93 724.481 1244.47 563.684 1311.77 539.004C1379.07 514.324 1421.07 574.394 1486.28 661.852C1551.5 749.309 1475.95 760.704 1531.44 848.822C1586.93 936.941 1563.75 1033.62 1493.96 1092.7Z" fill="#696099"/>
<path d="M1100.66 -140.82C1138.14 -297.322 1334.6 -118.9 1466.99 -83.2012C1451.12 -23.7124 1435.75 114.895 1501.3 193.414C1583.25 291.562 1738.12 398.557 1810.57 563.846C1883.03 729.134 1670.61 833.118 1599.86 799.577C1529.11 766.036 1409.51 667.155 1511.97 694.305C1614.43 721.454 1578.26 532.493 1425.85 315.814C1273.45 99.1357 1063.18 15.6819 1100.66 -140.82Z" fill="#1F36A5"/>
<path d="M1265.6 515.488C1317.05 520.507 1374.52 598.175 1429.34 682.138C1425.85 692.061 1410.06 712.867 1374.8 716.715C1330.72 721.526 1291.46 783.188 1290.58 874.199C1289.71 965.21 1276.57 978.212 1189.5 947.529C1102.44 916.846 1037.44 854.159 1055.72 847.04C1074.01 839.921 1129.36 726.064 1163.93 671.338C1198.49 616.612 1214.15 510.468 1265.6 515.488Z" fill="#481F62"/>
</g>
</g>
<defs>
<filter id="filter0_n_18_1058" x="-50" y="-177" width="1904" height="1294" filterUnits="userSpaceOnUse" color-interpolation-filters="sRGB">
<feFlood flood-opacity="0" result="BackgroundImageFix"/>
<feBlend mode="normal" in="SourceGraphic" in2="BackgroundImageFix" result="shape"/>
<feTurbulence type="fractalNoise" baseFrequency="2 2" stitchTiles="stitch" numOctaves="3" result="noise" seed="3545" />
<feColorMatrix in="noise" type="luminanceToAlpha" result="alphaNoise" />
<feComponentTransfer in="alphaNoise" result="coloredNoise1">
<feFuncA type="discrete" tableValues="0 0 0 0 0 0 0 0 0 0 0 0 0 0 0 0 0 1 1 1 1 1 1 1 1 1 1 1 1 1 1 1 1 0 0 0 0 0 0 0 0 0 0 0 0 0 0 0 0 0 0 0 0 0 0 0 0 0 0 0 0 0 0 0 0 0 0 0 0 0 0 0 0 0 0 0 0 0 0 0 0 0 0 0 0 0 0 0 0 0 0 0 0 0 0 0 0 0 0 0 "/>
</feComponentTransfer>
<feComposite operator="in" in2="shape" in="coloredNoise1" result="noise1Clipped" />
<feFlood flood-color="rgba(255, 255, 255, 0.1)" result="color1Flood" />
<feComposite operator="in" in2="noise1Clipped" in="color1Flood" result="color1" />
<feMerge result="effect1_noise_18_1058">
<feMergeNode in="shape" />
<feMergeNode in="color1" />
</feMerge>
</filter>
<filter id="filter1_f_18_1058" x="-278.442" y="-281.95" width="2473.59" height="1939.33" filterUnits="userSpaceOnUse" color-interpolation-filters="sRGB">
<feFlood flood-opacity="0" result="BackgroundImageFix"/>
<feBlend mode="normal" in="SourceGraphic" in2="BackgroundImageFix" result="shape"/>
<feGaussianBlur stdDeviation="67.5" result="effect1_foregroundBlur_18_1058"/>
</filter>
<filter id="filter2_f_18_1058" x="-416.539" y="-369" width="1886.5" height="1711.95" filterUnits="userSpaceOnUse" color-interpolation-filters="sRGB">
<feFlood flood-opacity="0" result="BackgroundImageFix"/>
<feBlend mode="normal" in="SourceGraphic" in2="BackgroundImageFix" result="shape"/>
<feGaussianBlur stdDeviation="60" result="effect1_foregroundBlur_18_1058"/>
</filter>
<filter id="filter3_f_18_1058" x="932.627" y="-324.147" width="2003.8" height="1880.1" filterUnits="userSpaceOnUse" color-interpolation-filters="sRGB">
<feFlood flood-opacity="0" result="BackgroundImageFix"/>
<feBlend mode="normal" in="SourceGraphic" in2="BackgroundImageFix" result="shape"/>
<feGaussianBlur stdDeviation="60" result="effect1_foregroundBlur_18_1058"/>
</filter>
<clipPath id="clip0_18_1058">
<rect width="1294" height="1904" fill="white" transform="matrix(0 -1 1 0 -50 1117)"/>
</clipPath>
</defs>
</svg>
